<svg width="24" height="24" viewBox="0 0 24 24" fill="none" xmlns="http://www.w3.org/2000/svg">
    <g clip-path="url(#clip0_11499_21075)">
        <path d="M15 19H0V17H15V19Z" fill="currentColor"/>
        <path d="M24 19H20V17H24V19Z" fill="currentColor"/>
        <path d="M4 7H0V5H4V7Z" fill="currentColor"/>
        <path d="M24 7H10V5H24V7Z" fill="currentColor"/>
        <path d="M9 6C9 4.89543 8.10457 4 7 4C5.89543 4 5 4.89543 5 6C5 7.10457 5.89543 8 7 8V10C4.79086 10 3 8.20914 3 6C3 3.79086 4.79086 2 7 2C9.20914 2 11 3.79086 11 6C11 8.20914 9.20914 10 7 10V8C8.10457 8 9 7.10457 9 6Z" fill="currentColor"/>
        <path d="M19 18C19 16.8954 18.1046 16 17 16C15.8954 16 15 16.8954 15 18C15 19.1046 15.8954 20 17 20V22C14.7909 22 13 20.2091 13 18C13 15.7909 14.7909 14 17 14C19.2091 14 21 15.7909 21 18C21 20.2091 19.2091 22 17 22V20C18.1046 20 19 19.1046 19 18Z" fill="currentColor"/>
    </g>
    <defs>
        <clipPath id="clip0_11499_21075">
        <rect width="24" height="24" fill="white"/>
        </clipPath>
    </defs>
</svg>
