<svg xmlns="http://www.w3.org/2000/svg" width="26" height="26" viewBox="0 0 26 26"><path d="M13.0007 8.66634C10.6065 8.66634 8.66732 10.6055 8.66732 12.9997C8.66732 15.3938 10.6065 17.333 13.0007 17.333C15.3948 17.333 17.334 15.3938 17.334 12.9997C17.334 10.6055 15.3948 8.66634 13.0007 8.66634ZM22.6857 11.9163C22.4403 9.71947 21.4551 7.67134 19.8921 6.10826C18.329 4.54518 16.2809 3.56006 14.084 3.31467V2.16634C14.084 1.57051 13.5965 1.08301 13.0007 1.08301C12.4048 1.08301 11.9173 1.57051 11.9173 2.16634V3.31467C9.72045 3.56006 7.67232 4.54518 6.10924 6.10826C4.54615 7.67134 3.56104 9.71947 3.31565 11.9163H2.16732C1.57148 11.9163 1.08398 12.4038 1.08398 12.9997C1.08398 13.5955 1.57148 14.083 2.16732 14.083H3.31565C3.56104 16.2799 4.54615 18.328 6.10924 19.8911C7.67232 21.4542 9.72045 22.4393 11.9173 22.6847V23.833C11.9173 24.4288 12.4048 24.9163 13.0007 24.9163C13.5965 24.9163 14.084 24.4288 14.084 23.833V22.6847C16.2809 22.4393 18.329 21.4542 19.8921 19.8911C21.4551 18.328 22.4403 16.2799 22.6857 14.083H23.834C24.4298 14.083 24.9173 13.5955 24.9173 12.9997C24.9173 12.4038 24.4298 11.9163 23.834 11.9163H22.6857ZM13.0007 20.583C8.80815 20.583 5.41732 17.1922 5.41732 12.9997C5.41732 8.80717 8.80815 5.41634 13.0007 5.41634C17.1932 5.41634 20.584 8.80717 20.584 12.9997C20.584 17.1922 17.1932 20.583 13.0007 20.583Z"></path></svg>
