<svg width="64" height="64" viewBox="0 0 64 64" xmlns="http://www.w3.org/2000/svg">
<path d="M32 55 L1 55 L1 1 L49 1 L49 16 L49 17 L47 17 L47 16 L47 2 L48 2 L48 3 L2 3 L2 2 L3 2 L3 54 L2 54 L2 53 L33 53 L33 55 Z" fill="currentColor" fill-rule="nonzero"/>
<path d="M57 41.486 L57 61.618034 L47.552786 56.894427 L48 56 L48.447214 56.894427 L39 61.618034 L39 41.486 L41 41.486 L41 60 L40 60 L39.552786 59.105573 L48 54.881966 L56.447214 59.105573 L56 60 L55 60 L55 41.486 L57 41.486 Z" fill="currentColor" fill-rule="nonzero"/>
<path d="M48 45 L45.96585 44.86312 L44.013023 44.464096 L42.161011 43.820817 L40.428477 42.951449 L38.833409 41.874093 L37.393393 40.606607 L36.125907 39.166591 L35.048551 37.571523 L34.179183 35.838989 L33.535904 33.986977 L33.13688 32.03415 L33 30 L33.13688 27.96585 L33.535904 26.013023 L34.179183 24.161011 L35.048551 22.428477 L36.125907 20.833409 L37.393393 19.393393 L38.833409 18.125907 L40.428477 17.048551 L42.161011 16.179183 L44.013023 15.535904 L45.96585 15.13688 L48 15 L50.03415 15.13688 L51.986977 15.535904 L53.838989 16.179183 L55.571523 17.048551 L57.166591 18.125907 L58.606607 19.393393 L59.874093 20.833409 L60.951449 22.428477 L61.820817 24.161011 L62.464096 26.013023 L62.86312 27.96585 L63 30 L62.86312 32.03415 L62.464096 33.986977 L61.820817 35.838989 L60.951449 37.571523 L59.874093 39.166591 L58.606607 40.606607 L57.166591 41.874093 L55.571523 42.951449 L53.838989 43.820817 L51.986977 44.464096 L50.03415 44.86312 L48 45 Z M48 43 L49.76529 42.881274 L51.456541 42.535719 L53.059886 41.978808 L54.560625 41.225736 L55.943386 40.291763 L57.192393 39.192393 L58.291763 37.943386 L59.225736 36.560625 L59.978808 35.059886 L60.535719 33.456541 L60.881274 31.76529 L61 30 L60.881274 28.23471 L60.535719 26.543459 L59.978808 24.940114 L59.225736 23.439375 L58.291763 22.056614 L57.192393 20.807607 L55.943386 19.708237 L54.560625 18.774264 L53.059886 18.021192 L51.456541 17.464281 L49.76529 17.118726 L48 17 L46.23471 17.118726 L44.543459 17.464281 L42.940114 18.021192 L41.439375 18.774264 L40.056614 19.708237 L38.807607 20.807607 L37.708237 22.056614 L36.774264 23.439375 L36.021192 24.940114 L35.464281 26.543459 L35.118726 28.23471 L35 30 L35.118726 31.76529 L35.464281 33.456541 L36.021192 35.059886 L36.774264 36.560625 L37.708237 37.943386 L38.807607 39.192393 L40.056614 40.291763 L41.439375 41.225736 L42.940114 41.978808 L44.543459 42.535719 L46.23471 42.881274 L48 43 Z" fill="currentColor" fill-rule="nonzero"/>
<path d="M12 17 L28 17 L29 17 L29 19 L28 19 L11 19 L11 17 Z" fill="currentColor" fill-rule="nonzero"/>
<path d="M12 27 L24 27 L25 27 L25 29 L24 29 L11 29 L11 27 Z" fill="currentColor" fill-rule="nonzero"/>
<path d="M12 37 L24 37 L25 37 L25 39 L24 39 L11 39 L11 37 Z" fill="currentColor" fill-rule="nonzero"/>
</svg>
