<svg width="64" height="64" viewBox="0 0 64 64" xmlns="http://www.w3.org/2000/svg">
<path d="M24.707107 37.292893 L30.707107 43.292893 L30 44 L29.292893 43.292893 L41.292893 31.292893 L42 30.585786 L43.414214 32 L42.707107 32.707107 L30 45.414214 L22.585786 38 L24 36.585786 Z" fill="currentColor" fill-rule="nonzero"/>
<path d="M39 8 L38 8 L38 7 L45 7 L45 17 L19 17 L19 7 L26 7 L26 8 L25 8 L25.063841 7.051365 L25.250109 6.139674 L25.550451 5.274885 L25.956241 4.466129 L26.458913 3.721864 L27.050143 3.050143 L27.721864 2.458913 L28.466129 1.956241 L29.274885 1.550451 L30.139674 1.250109 L31.051365 1.063841 L32 1 L32.948635 1.063841 L33.860326 1.250109 L34.725115 1.550451 L35.533871 1.956241 L36.278136 2.458913 L36.949857 3.050143 L37.541087 3.721864 L38.043759 4.466129 L38.449549 5.274885 L38.749891 6.139674 L38.936159 7.051365 L39 8 Z M37 8 L36.954307 7.320183 L36.821497 6.670048 L36.607514 6.053927 L36.318019 5.476982 L35.958739 4.945046 L35.535643 4.464357 L35.054954 4.041261 L34.523018 3.681981 L33.946073 3.392486 L33.329952 3.178503 L32.679817 3.045693 L32 3 L31.320183 3.045693 L30.670048 3.178503 L30.053927 3.392486 L29.476982 3.681981 L28.945046 4.041261 L28.464357 4.464357 L28.041261 4.945046 L27.681981 5.476982 L27.392486 6.053927 L27.178503 6.670048 L27.045693 7.320183 L27 8 L27 9 L20 9 L20 8 L21 8 L21 16 L20 16 L20 15 L44 15 L44 16 L43 16 L43 8 L44 8 L44 9 L37 9 L37 8 Z" fill="currentColor" fill-rule="nonzero"/>
<path d="M50 9 L57 9 L57 63 L7 63 L7 9 L14 9 L14 11 L8 11 L8 10 L9 10 L9 62 L8 62 L8 61 L56 61 L56 62 L55 62 L55 10 L56 10 L56 11 L50 11 L50 9 Z" fill="currentColor" fill-rule="nonzero"/>
</svg>
