<svg width="64" height="64" viewBox="0 0 64 64" xmlns="http://www.w3.org/2000/svg">
<path d="M19.8 31.4 L25.8 39.4 L25 40 L24.247423 39.341495 L32 30.481408 L39.752577 39.341495 L39 40 L38.2 39.4 L44.2 31.4 L45.8 32.6 L39.059799 41.586934 L31.247423 32.658505 L32 32 L32.752577 32.658505 L24.940201 41.586934 L18.2 32.6 L19.8 31.4 Z" fill="currentColor" fill-rule="nonzero"/>
<path d="M3.128424 35.50974 L15.921108 12.767118 L23.82792 24.439154 L22.172074 25.560837 L21.494674 24.560837 L20.933837 23.732911 L22.589689 22.611237 L23.150526 23.439163 L23.827926 24.439163 L23 25 L22.17208 25.560846 L15.17208 15.227446 L16 14.6666 L16.871576 15.15686 L4.381316 37.361836 L2.638164 36.381316 Z" fill="currentColor" fill-rule="nonzero"/>
<path d="M31.120708 8.476283 L32 8 L32.879292 8.476283 L6.879292 56.476283 L6 56 L6 55 L58 55 L58 56 L57.120708 56.476283 L31.120708 8.476283 Z M32.879292 7.523717 L59.678945 57 L4.321055 57 L32 5.900409 L32.879292 7.523717 Z" fill="currentColor" fill-rule="nonzero"/>
</svg>
