<svg width="64" height="64" viewBox="0 0 64 64" xmlns="http://www.w3.org/2000/svg">
<path d="M32 63 L28.831645 62.839996 L25.75349 62.370203 L22.781935 61.606134 L19.933111 60.563449 L17.22289 59.257868 L14.666926 57.705083 L12.280723 55.920714 L10.079706 53.920294 L8.079286 51.719277 L6.294917 49.333074 L4.742132 46.77711 L3.436551 44.066889 L2.393866 41.218065 L1.629797 38.24651 L1.160004 35.168355 L1 32 L1.160004 28.831645 L1.629797 25.75349 L2.393866 22.781935 L3.436551 19.933111 L4.742132 17.22289 L6.294917 14.666926 L8.079286 12.280723 L10.079706 10.079706 L12.280723 8.079286 L14.666926 6.294917 L17.22289 4.742132 L19.933111 3.436551 L22.781935 2.393866 L25.75349 1.629797 L28.831645 1.160004 L32 1 L35.168355 1.160004 L38.24651 1.629797 L41.218065 2.393866 L44.066889 3.436551 L46.77711 4.742132 L49.333074 6.294917 L51.719277 8.079286 L53.920294 10.079706 L55.920714 12.280723 L57.705083 14.666926 L59.257868 17.22289 L60.563449 19.933111 L61.606134 22.781935 L62.370203 25.75349 L62.839996 28.831645 L63 32 L62.839996 35.168355 L62.370203 38.24651 L61.606134 41.218065 L60.563449 44.066889 L59.257868 46.77711 L57.705083 49.333074 L55.920714 51.719277 L53.920294 53.920294 L51.719277 55.920714 L49.333074 57.705083 L46.77711 59.257868 L44.066889 60.563449 L41.218065 61.606134 L38.24651 62.370203 L35.168355 62.839996 L32 63 Z M32 61 L34.966282 60.85023 L37.845558 60.410806 L40.624068 59.696378 L43.287783 58.721441 L45.822415 57.500439 L48.213459 56.047837 L50.44626 54.378175 L52.506081 52.506081 L54.378175 50.44626 L56.047837 48.213459 L57.500439 45.822415 L58.721441 43.287783 L59.696378 40.624068 L60.410806 37.845558 L60.85023 34.966282 L61 32 L60.85023 29.033718 L60.410806 26.154442 L59.696378 23.375932 L58.721441 20.712217 L57.500439 18.177585 L56.047837 15.786541 L54.378175 13.55374 L52.506081 11.493919 L50.44626 9.621825 L48.213459 7.952163 L45.822415 6.499561 L43.287783 5.278559 L40.624068 4.303622 L37.845558 3.589194 L34.966282 3.14977 L32 3 L29.033718 3.14977 L26.154442 3.589194 L23.375932 4.303622 L20.712217 5.278559 L18.177585 6.499561 L15.786541 7.952163 L13.55374 9.621825 L11.493919 11.493919 L9.621825 13.55374 L7.952163 15.786541 L6.499561 18.177585 L5.278559 20.712217 L4.303622 23.375932 L3.589194 26.154442 L3.14977 29.033718 L3 32 L3.14977 34.966282 L3.589194 37.845558 L4.303622 40.624068 L5.278559 43.287783 L6.499561 45.822415 L7.952163 48.213459 L9.621825 50.44626 L11.493919 52.506081 L13.55374 54.378175 L15.786541 56.047837 L18.177585 57.500439 L20.712217 58.721441 L23.375932 59.696378 L26.154442 60.410806 L29.033718 60.85023 L32 61 Z" fill="currentColor" fill-rule="nonzero"/>
<path d="M20 32C22.2091 32 24 30.2091 24 28C24 25.7909 22.2091 24 20 24C17.7909 24 16 25.7909 16 28C16 30.2091 17.7909 32 20 32Z" fill="currentColor"/>
<path d="M44 32C46.2091 32 48 30.2091 48 28C48 25.7909 46.2091 24 44 24C41.7909 24 40 25.7909 40 28C40 30.2091 41.7909 32 44 32Z" fill="currentColor"/>
<path d="M43.266657 44.498904 L42.971336 44.986842 L42.65568 45.460242 L42.320268 45.91852 L41.965675 46.3611 L41.592476 46.787403 L41.201244 47.196856 L40.792552 47.588885 L40.366971 47.962913 L39.925076 48.318366 L39.467441 48.654668 L38.994642 48.971239 L38.50726 49.267502 L38.007352 49.542103 L37.497117 49.793932 L36.977348 50.022776 L36.448833 50.228422 L35.912357 50.410661 L35.368705 50.569283 L34.818659 50.704079 L34.263004 50.814837 L33.702524 50.901349 L33.138003 50.963404 L32.570231 51.000791 L32 51.0133 L31.42979 51.000791 L30.862036 50.963404 L30.29753 50.901349 L29.73706 50.814837 L29.181412 50.704078 L28.63137 50.569283 L28.087718 50.410662 L27.551239 50.228424 L27.022716 50.022779 L26.502936 49.793938 L25.992688 49.542111 L25.492761 49.267514 L25.005358 48.971239 L24.532559 48.654668 L24.074924 48.318366 L23.633029 47.962913 L23.207448 47.588885 L22.798756 47.196856 L22.407524 46.787403 L22.034325 46.3611 L21.679732 45.91852 L21.34432 45.460242 L21.028664 44.986842 L20.733343 44.498904 L20.234439 43.632247 L21.967753 42.634439 L22.466657 43.501096 L22.716555 43.913985 L22.983651 44.314557 L23.267462 44.702333 L23.567505 45.076826 L23.883294 45.437551 L24.214344 45.784019 L24.560167 46.11574 L24.920275 46.432228 L25.294183 46.732993 L25.681404 47.01755 L26.081456 47.285413 L26.493839 47.536086 L26.916867 47.768445 L27.348615 47.981528 L27.788424 48.175161 L28.235635 48.349169 L28.689584 48.503371 L29.149605 48.637592 L29.615032 48.751651 L30.0852 48.84537 L30.559442 48.918573 L31.037097 48.97108 L31.517502 49.002715 L32 49.0133 L32.482523 49.002715 L32.962948 48.97108 L33.440617 48.918572 L33.91487 48.84537 L34.385043 48.75165 L34.85047 48.637592 L35.310487 48.503372 L35.764426 48.34917 L36.211623 48.175165 L36.651415 47.981534 L37.08314 47.768453 L37.50614 47.536098 L37.918544 47.285413 L38.318596 47.01755 L38.705817 46.732993 L39.079725 46.432228 L39.439833 46.11574 L39.785656 45.784019 L40.116706 45.437551 L40.432495 45.076826 L40.732538 44.702333 L41.016349 44.314557 L41.283445 43.913985 L41.533343 43.501096 L42.032247 42.634439 L43.765561 43.632247 L43.266657 44.498904 Z" fill="currentColor" fill-rule="nonzero"/>
</svg>
