<svg width="64" height="64" viewBox="0 0 64 64" xmlns="http://www.w3.org/2000/svg">
<path d="M31.103293 5.814634 L32 5.37201 L32.896707 5.814634 L24.012033 23.813997 L4.143827 26.701603 L4 25.712 L4.697995 24.995898 L19.074459 39.008842 L15.681617 58.796992 L14.696 58.628 L14.230789 57.7428 L32 48.404312 L49.769211 57.7428 L49.304 58.628 L48.318383 58.796992 L44.925541 39.008842 L59.302005 24.995898 L60 25.712 L59.856173 26.701603 L39.987967 23.813997 L31.103293 5.814634 Z M32.896707 4.929386 L41.548707 22.457376 L40.652 22.9 L40.795827 21.910397 L62.148966 25.01382 L46.697995 40.074102 L46 39.358 L46.985617 39.189008 L50.631946 60.455582 L31.534789 50.4192 L32 49.534 L32.465211 50.4192 L13.368054 60.455582 L17.014383 39.189008 L18 39.358 L17.302005 40.074102 L1.851034 25.01382 L23.204173 21.910397 L23.348 22.9 L22.451293 22.457376 L32 3.112757 L32.896707 4.929386 Z" fill="currentColor" fill-rule="nonzero"/>
<path d="M15.696 57.628L32.5 49V5L23.348 22.9L5 25.712L19 39.358L15.696 57.628Z" fill="currentColor"/>
</svg>
